<svg width="209" height="43" viewBox="0 0 209 43" fill="none" xmlns="http://www.w3.org/2000/svg">
<g id="Layer_1" clip-path="url(#clip0_1019_40829)">
<path id="Vector" fill-rule="evenodd" clip-rule="evenodd" d="M33.1376 8.90088C28.792 8.90088 24.9602 11.1914 22.9052 14.8519C20.9786 11.0844 17.2538 8.90088 12.5871 8.90088C9.26911 8.90088 6.42202 10.1639 4.40978 12.433V10.4422C4.38838 9.9284 3.98165 9.50027 3.4893 9.50027H0.899082C0.406728 9.50027 0 9.9284 0 10.4422V39.9406C0 40.4758 0.406728 40.8825 0.899082 40.8825H3.63914C4.1315 40.8825 4.53822 40.4544 4.53822 39.9406V22.4513C4.53822 17.2495 7.83486 13.6104 12.5229 13.6104C17.211 13.6104 20.5719 17.2495 20.5719 22.4513V39.9406C20.5719 40.4758 20.9786 40.8825 21.4709 40.8825H24.211C24.7034 40.8825 25.1101 40.4544 25.1101 39.9406V22.4513C25.1101 17.2067 28.4067 13.5461 33.159 13.5461C37.9113 13.5461 41.1437 17.0568 41.1437 22.2801V39.9406C41.1437 40.4758 41.5504 40.8825 42.0428 40.8825H44.7829C45.2752 40.8825 45.6819 40.4544 45.6819 39.9406V22.2801C45.6819 14.4024 40.5443 8.90088 33.159 8.90088H33.1376Z" fill="#EB1E40"/>
<path id="Vector_2" fill-rule="evenodd" clip-rule="evenodd" d="M67.8797 36.0872C67.7941 35.8518 67.6014 35.6591 67.366 35.5735C67.1305 35.4879 66.895 35.4879 66.6595 35.5949C65.2681 36.3013 63.8981 36.6866 62.7849 36.6866C59.6381 36.6866 58.5678 35.2096 58.5678 30.8212V13.8028H67.1091C67.6014 13.8028 68.0082 13.3747 68.0082 12.8609V10.4206C68.0082 9.90682 67.6014 9.47868 67.1091 9.47868H58.5678V1.53679C58.5678 1.2585 58.4608 1.00162 58.2681 0.830364C58.0754 0.65911 57.8186 0.552076 57.5831 0.59489L54.8858 0.894584C54.4363 0.937397 54.0938 1.34413 54.0938 1.83648V9.47868H49.0846C48.5923 9.47868 48.1855 9.90682 48.1855 10.4206V12.8609C48.1855 13.3747 48.5923 13.8028 49.0846 13.8028H54.0938V30.8212C54.0938 37.8426 56.9409 41.2677 62.7849 41.2677C64.4975 41.2677 66.317 40.7539 68.3935 39.6836C68.8216 39.4695 69.0143 38.9343 68.8216 38.4634L67.8583 36.0658L67.8797 36.0872Z" fill="#EB1E40"/>
<path id="Vector_3" fill-rule="evenodd" clip-rule="evenodd" d="M84.7068 22.6867L83.7221 22.5155C79.7404 21.7662 76.4438 20.9314 76.3582 18.1057C76.3368 17.1852 76.615 16.4145 77.2144 15.7509C78.4132 14.4451 80.8108 13.6531 83.615 13.6531H83.8291C86.8261 13.6531 89.352 14.1454 91.8994 16.5216C92.2634 16.8641 92.8199 16.8427 93.141 16.4574L94.8322 14.5522C95.1747 14.1668 95.1533 13.5674 94.7893 13.2035C92.0065 10.4207 88.3245 9.00781 83.8505 9.00781H83.6364C79.612 9.00781 76.1227 10.2708 74.0676 12.4757C72.6334 14.017 71.9056 15.9436 71.927 18.2127C71.9912 25.0414 78.349 26.176 83.4652 27.0751C88.5386 27.9314 91.8352 28.7448 91.771 31.9558C91.6212 36.1944 86.2909 36.6653 84.0218 36.6653C79.9973 36.6653 76.4652 34.9528 74.5814 32.0629C74.4316 31.8488 74.2175 31.6989 73.9606 31.6561C73.7037 31.6133 73.4469 31.6989 73.2542 31.8916L71.242 33.7968C70.9209 34.1179 70.8352 34.6317 71.0921 35.017C73.5325 38.9772 78.349 41.3534 83.979 41.3534C86.8046 41.3534 96.0523 40.6898 96.2664 32.2127C96.5661 24.806 89.716 23.5858 84.7282 22.6867H84.7068Z" fill="#EB1E40"/>
<path id="Vector_4" fill-rule="evenodd" clip-rule="evenodd" d="M115.446 20.2677C115.06 20.2677 114.675 20.2677 114.29 20.2035C113.883 20.1607 113.498 20.0965 113.091 19.9894C112.684 19.8824 112.277 19.754 111.871 19.6041C111.464 19.4329 111.079 19.2188 110.672 18.9619L111.507 17.7203C111.849 17.9344 112.192 18.127 112.534 18.2769C112.877 18.4267 113.219 18.5338 113.583 18.6408C113.926 18.7264 114.268 18.7907 114.589 18.8335C114.932 18.8763 115.232 18.8977 115.553 18.8977C116.066 18.8977 116.516 18.8763 116.901 18.8121C117.287 18.7478 117.608 18.6408 117.843 18.491C118.1 18.3411 118.271 18.127 118.4 17.8702C118.528 17.6133 118.592 17.2708 118.592 16.864C118.592 16.5429 118.55 16.2647 118.443 16.072C118.335 15.8579 118.164 15.6867 117.907 15.5582C117.672 15.4084 117.351 15.3014 116.965 15.1943C116.58 15.0873 116.109 14.9803 115.574 14.8732C114.91 14.7448 114.311 14.5949 113.776 14.4665C113.241 14.3166 112.791 14.124 112.406 13.8671C112.042 13.6102 111.742 13.3105 111.55 12.9252C111.357 12.5399 111.25 12.0261 111.25 11.4053C111.25 10.913 111.335 10.4634 111.485 10.0781C111.635 9.6928 111.892 9.35029 112.235 9.09341C112.577 8.81512 113.027 8.62246 113.583 8.47261C114.14 8.32277 114.803 8.25854 115.595 8.25854C116.452 8.25854 117.244 8.34417 117.95 8.53683C118.657 8.70809 119.256 8.96497 119.791 9.28607L119.042 10.5919C118.592 10.3564 118.1 10.1423 117.522 9.99249C116.944 9.82124 116.302 9.75702 115.617 9.75702C115.082 9.75702 114.632 9.79983 114.268 9.86405C113.904 9.94968 113.626 10.0567 113.412 10.2066C113.198 10.3564 113.048 10.5277 112.962 10.7417C112.877 10.9558 112.834 11.1913 112.834 11.4481C112.834 11.7692 112.898 12.0261 113.005 12.2402C113.112 12.4543 113.283 12.6255 113.519 12.7754C113.754 12.9252 114.033 13.0322 114.397 13.1393C114.761 13.2463 115.189 13.3319 115.702 13.439C116.409 13.5888 117.03 13.7173 117.565 13.8671C118.121 14.017 118.592 14.1882 118.978 14.4451C119.363 14.6806 119.663 15.0017 119.855 15.3656C120.048 15.7509 120.155 16.2433 120.155 16.864C120.155 17.5277 120.069 18.0842 119.877 18.5124C119.684 18.9619 119.406 19.3044 119.02 19.5827C118.635 19.861 118.164 20.0322 117.586 20.1607C117.008 20.2677 116.323 20.3319 115.51 20.3319L115.446 20.2677Z" fill="black"/>
<path id="Vector_5" fill-rule="evenodd" clip-rule="evenodd" d="M122.189 4.7478H123.774V7.01692H122.189V4.7478ZM122.189 8.53679H123.731V20.075H122.189V8.53679Z" fill="black"/>
<path id="Vector_6" fill-rule="evenodd" clip-rule="evenodd" d="M130.389 20.2892C130.004 20.2892 129.618 20.2892 129.233 20.225C128.826 20.1822 128.441 20.1179 128.034 20.0109C127.627 19.9039 127.221 19.7754 126.814 19.6256C126.407 19.4543 126.022 19.2403 125.615 18.9834L126.45 17.7418C126.793 17.9559 127.135 18.1485 127.478 18.2984C127.82 18.4482 128.163 18.5553 128.527 18.6623C128.869 18.7479 129.212 18.8121 129.533 18.855C129.854 18.8978 130.175 18.9192 130.496 18.9192C131.01 18.9192 131.459 18.8978 131.845 18.8335C132.23 18.7693 132.551 18.6623 132.786 18.5124C133.043 18.3626 133.215 18.1485 133.343 17.8916C133.472 17.6348 133.536 17.2923 133.536 16.8855C133.536 16.5644 133.493 16.2861 133.364 16.0935C133.257 15.8794 133.086 15.7082 132.829 15.5797C132.594 15.4299 132.273 15.3228 131.887 15.2158C131.502 15.1088 131.031 15.0017 130.496 14.8947C129.832 14.7663 129.233 14.6164 128.698 14.488C128.163 14.3381 127.713 14.1455 127.328 13.8886C126.964 13.6531 126.664 13.332 126.472 12.9467C126.279 12.5614 126.172 12.0476 126.172 11.4268C126.172 10.9345 126.257 10.4849 126.407 10.0996C126.557 9.71428 126.814 9.37177 127.157 9.11489C127.499 8.8366 127.949 8.64394 128.505 8.4941C129.062 8.34425 129.725 8.28003 130.517 8.28003C131.374 8.28003 132.166 8.36566 132.872 8.55832C133.579 8.72957 134.178 8.98645 134.713 9.30755L133.964 10.6134C133.514 10.3779 133.022 10.1638 132.444 10.014C131.866 9.84272 131.224 9.7785 130.539 9.7785C130.004 9.7785 129.554 9.82131 129.19 9.88553C128.826 9.97116 128.548 10.0782 128.334 10.228C128.12 10.3779 127.97 10.5491 127.884 10.7632C127.799 10.9773 127.756 11.2128 127.756 11.4696C127.756 11.7907 127.82 12.0476 127.927 12.2617C128.034 12.4757 128.205 12.647 128.441 12.7968C128.676 12.9467 128.955 13.0537 129.319 13.1608C129.683 13.2678 130.111 13.3534 130.624 13.4605C131.331 13.6103 131.952 13.7387 132.487 13.8886C133.043 14.0384 133.514 14.2097 133.9 14.4666C134.285 14.702 134.585 15.0231 134.777 15.3871C134.97 15.7724 135.077 16.2647 135.077 16.8855C135.077 17.5491 134.991 18.1057 134.799 18.5339C134.606 18.9834 134.328 19.3259 133.942 19.6042C133.557 19.8825 133.086 20.0537 132.508 20.1822C131.93 20.2892 131.245 20.3534 130.432 20.3534L130.389 20.2892Z" fill="black"/>
<path id="Vector_7" fill-rule="evenodd" clip-rule="evenodd" d="M136.018 8.55834H138.115L138.394 5.09045L139.635 4.85498V8.55834H142.782V9.99259H139.635V16.9284C139.635 17.1853 139.635 17.4421 139.678 17.6562C139.7 17.8703 139.785 18.0629 139.892 18.2128C140.021 18.3626 140.192 18.4911 140.427 18.5767C140.663 18.6623 140.984 18.7051 141.369 18.7051H142.782V20.118C142.739 20.118 142.654 20.118 142.482 20.118C142.333 20.118 142.161 20.118 141.969 20.118C141.776 20.118 141.605 20.118 141.455 20.118H141.112C140.47 20.118 139.956 20.0538 139.55 19.9253C139.143 19.7969 138.843 19.6042 138.629 19.3473C138.415 19.0905 138.265 18.7908 138.18 18.4054C138.094 18.0415 138.073 17.6134 138.073 17.121V9.99259H136.018V8.55834Z" fill="black"/>
<path id="Vector_8" fill-rule="evenodd" clip-rule="evenodd" d="M149.355 9.71436C148.628 9.71436 148.028 9.79999 147.557 9.97124C147.086 10.1425 146.701 10.3994 146.401 10.7205C146.102 11.0416 145.887 11.4483 145.759 11.8978C145.631 12.3474 145.524 12.8611 145.502 13.4177H152.609C152.609 13.0966 152.566 12.7541 152.545 12.433C152.524 12.1119 152.459 11.8122 152.395 11.5553C152.309 11.277 152.224 11.0202 152.074 10.8061C151.946 10.592 151.753 10.3994 151.517 10.2281C151.282 10.0783 150.982 9.94983 150.64 9.8642C150.297 9.77858 149.869 9.73576 149.355 9.73576V9.71436ZM149.441 20.3535C148.67 20.3535 148.007 20.2893 147.429 20.1394C146.851 19.9896 146.38 19.7969 145.973 19.54C145.566 19.2832 145.224 18.9621 144.967 18.5981C144.71 18.2342 144.496 17.8275 144.346 17.378C144.196 16.9284 144.089 16.4575 144.025 15.9223C143.961 15.4085 143.939 14.8734 143.939 14.3168C143.939 13.4819 144.025 12.6899 144.175 11.9621C144.325 11.2342 144.603 10.592 145.01 10.0569C145.417 9.5217 145.973 9.09356 146.68 8.77246C147.386 8.45136 148.285 8.30151 149.398 8.30151C150.169 8.30151 150.811 8.38714 151.346 8.55839C151.881 8.72965 152.331 8.96512 152.673 9.26482C153.016 9.56451 153.294 9.92843 153.487 10.3352C153.68 10.7419 153.829 11.1914 153.915 11.6838C154.001 12.1761 154.065 12.6899 154.086 13.2251C154.086 13.7602 154.086 14.3168 154.086 14.8734H145.438C145.438 15.4728 145.524 16.0293 145.652 16.5217C145.759 17.0355 145.973 17.4636 146.273 17.8275C146.572 18.1914 146.958 18.4697 147.472 18.6624C147.985 18.855 148.628 18.9621 149.42 18.9621C149.891 18.9621 150.319 18.9407 150.661 18.8764C151.025 18.8122 151.346 18.748 151.624 18.641C151.903 18.5339 152.181 18.4055 152.417 18.277C152.652 18.1272 152.887 17.9774 153.123 17.8275L153.979 18.9407C153.701 19.1547 153.401 19.3474 153.08 19.54C152.759 19.7113 152.417 19.8826 152.053 19.9896C151.689 20.118 151.282 20.2037 150.854 20.2679C150.426 20.3321 149.933 20.3749 149.42 20.3749L149.441 20.3535Z" fill="black"/>
<path id="Vector_9" fill-rule="evenodd" clip-rule="evenodd" d="M156.42 8.66526L157.661 8.57963L157.811 9.77841C157.918 9.58575 158.068 9.39309 158.282 9.22184C158.475 9.05058 158.753 8.87933 159.074 8.75089C159.395 8.62245 159.802 8.51541 160.273 8.42979C160.744 8.34416 161.3 8.32275 161.943 8.32275C162.585 8.32275 163.099 8.36557 163.527 8.45119C163.955 8.53682 164.297 8.64385 164.554 8.7723C164.811 8.90074 165.025 9.07199 165.175 9.26465C165.325 9.45731 165.432 9.67138 165.496 9.90685C165.625 9.67138 165.796 9.47872 166.031 9.28606C166.267 9.0934 166.567 8.92214 166.909 8.7937C167.273 8.66526 167.701 8.53682 168.193 8.4726C168.686 8.38697 169.264 8.36557 169.927 8.36557C170.848 8.36557 171.576 8.4726 172.111 8.70808C172.646 8.94355 173.053 9.26465 173.331 9.67138C173.609 10.0995 173.781 10.5919 173.845 11.1698C173.909 11.7478 173.952 12.4114 173.952 13.1179V20.1607H172.368V13.3747C172.368 12.861 172.368 12.39 172.325 11.9619C172.282 11.5338 172.175 11.1698 171.982 10.8702C171.79 10.5705 171.512 10.335 171.126 10.1637C170.741 9.99248 170.184 9.90685 169.478 9.90685C168.707 9.90685 168.108 9.99248 167.637 10.1851C167.187 10.3778 166.823 10.6347 166.567 10.9772C166.31 11.3197 166.16 11.705 166.074 12.176C165.989 12.6255 165.967 13.1393 165.946 13.6744V20.1607H164.383V13.3747C164.383 12.861 164.383 12.39 164.34 11.9619C164.297 11.5338 164.19 11.1698 163.998 10.8702C163.805 10.5705 163.527 10.3136 163.141 10.1637C162.756 9.99248 162.2 9.90685 161.493 9.90685C160.723 9.90685 160.123 9.99248 159.652 10.1851C159.181 10.3778 158.839 10.6347 158.582 10.9772C158.325 11.3197 158.175 11.705 158.089 12.176C158.004 12.6255 157.982 13.1393 157.961 13.6744V20.1607H156.377V8.66526H156.42Z" fill="black"/>
<path id="Vector_10" fill-rule="evenodd" clip-rule="evenodd" d="M176.734 4.8335H178.318V7.10261H176.734V4.8335ZM176.734 8.62249H178.276V20.1607H176.734V8.62249Z" fill="black"/>
<path id="Vector_11" fill-rule="evenodd" clip-rule="evenodd" d="M185.703 4.85498H187.287V7.12409H185.703V4.85498ZM185.703 8.64397H187.244V20.1822H185.703V8.64397Z" fill="black"/>
<path id="Vector_12" fill-rule="evenodd" clip-rule="evenodd" d="M111.721 23.4573H113.305V25.7264H111.721V23.4573ZM111.721 27.2463H113.262V38.7845H111.721V27.2463Z" fill="black"/>
<path id="Vector_13" fill-rule="evenodd" clip-rule="evenodd" d="M116.152 27.332L117.394 27.2464L117.544 28.4452C117.672 28.2525 117.843 28.0598 118.036 27.8886C118.25 27.7173 118.528 27.5461 118.85 27.4176C119.171 27.2892 119.599 27.1822 120.07 27.0965C120.541 27.0109 121.119 26.9895 121.782 26.9895C122.703 26.9895 123.431 27.0965 123.987 27.332C124.544 27.5675 124.951 27.8886 125.229 28.2953C125.507 28.7234 125.7 29.2158 125.785 29.7938C125.871 30.3718 125.914 31.0354 125.914 31.7418V38.7846H124.33V31.9987C124.33 31.4849 124.33 31.014 124.265 30.5858C124.223 30.1577 124.094 29.7938 123.902 29.4941C123.709 29.1944 123.409 28.9589 123.002 28.7877C122.596 28.6164 122.039 28.5308 121.354 28.5308C120.584 28.5308 119.963 28.6164 119.492 28.8091C119.021 29.0017 118.657 29.2586 118.4 29.6011C118.143 29.9436 117.972 30.329 117.865 30.7999C117.779 31.2494 117.736 31.7632 117.736 32.2984V38.7846H116.152V27.332Z" fill="black"/>
<path id="Vector_14" fill-rule="evenodd" clip-rule="evenodd" d="M127.67 27.2678H129.768L130.046 23.7999L131.288 23.5645V27.2678H134.434V28.7021H131.288V35.6378C131.288 35.8947 131.288 36.1516 131.33 36.3657C131.352 36.5797 131.438 36.7724 131.545 36.9222C131.673 37.0721 131.844 37.2005 132.08 37.2648C132.315 37.3504 132.636 37.3932 133.022 37.3932H134.434V38.7846C134.392 38.7846 134.306 38.7846 134.135 38.7846C133.985 38.7846 133.814 38.7846 133.621 38.7846C133.428 38.7846 133.257 38.7846 133.107 38.7846C132.957 38.7846 132.829 38.7846 132.765 38.7846C132.123 38.7846 131.609 38.7204 131.202 38.592C130.795 38.4635 130.496 38.2709 130.282 38.014C130.067 37.7571 129.918 37.4574 129.832 37.0721C129.746 36.7082 129.725 36.2801 129.725 35.7877V28.6593H127.67V27.225V27.2678Z" fill="black"/>
<path id="Vector_15" fill-rule="evenodd" clip-rule="evenodd" d="M141.006 28.4238C140.278 28.4238 139.679 28.5095 139.208 28.6807C138.737 28.852 138.351 29.1088 138.052 29.4299C137.752 29.751 137.538 30.1578 137.409 30.6073C137.281 31.0569 137.195 31.5706 137.153 32.1272H144.26C144.26 31.8061 144.217 31.4636 144.195 31.1425C144.174 30.8214 144.11 30.5217 144.045 30.2648C143.981 29.9865 143.874 29.7296 143.724 29.5156C143.596 29.3015 143.403 29.1088 143.168 28.9376C142.932 28.7877 142.633 28.6593 142.29 28.5737C141.948 28.488 141.52 28.4452 141.006 28.4452V28.4238ZM141.091 39.063C140.321 39.063 139.657 38.9988 139.079 38.8489C138.501 38.6991 138.03 38.5064 137.623 38.2495C137.217 37.9926 136.874 37.6715 136.617 37.3076C136.36 36.9437 136.146 36.537 135.997 36.0874C135.847 35.6379 135.74 35.1669 135.675 34.6318C135.611 34.118 135.59 33.5829 135.59 33.0263C135.59 32.1914 135.675 31.3994 135.825 30.6715C135.975 29.9437 136.253 29.3015 136.66 28.7663C137.067 28.2312 137.623 27.803 138.33 27.4819C139.036 27.1608 139.935 27.011 141.049 27.011C141.819 27.011 142.461 27.0966 142.997 27.2679C143.532 27.4391 143.981 27.6746 144.324 27.9743C144.666 28.274 144.945 28.6379 145.137 29.0446C145.33 29.4514 145.48 29.9009 145.565 30.3932C145.651 30.8856 145.715 31.3994 145.737 31.9345C145.737 32.4697 145.737 33.0263 145.737 33.5829H137.088C137.088 34.1822 137.174 34.7388 137.302 35.2312C137.409 35.7449 137.623 36.1731 137.923 36.537C138.223 36.9009 138.608 37.1792 139.122 37.3718C139.636 37.5645 140.278 37.6715 141.07 37.6715C141.541 37.6715 141.948 37.6501 142.312 37.5859C142.675 37.5217 142.997 37.4575 143.275 37.3504C143.553 37.2434 143.831 37.115 144.067 36.9865C144.302 36.8367 144.538 36.6868 144.773 36.537L145.63 37.6501C145.351 37.8642 145.052 38.0569 144.731 38.2495C144.409 38.4208 144.067 38.592 143.703 38.6991C143.339 38.8275 142.932 38.9131 142.504 38.9988C142.076 39.063 141.584 39.1058 141.07 39.1058L141.091 39.063Z" fill="black"/>
<path id="Vector_16" fill-rule="evenodd" clip-rule="evenodd" d="M152.287 33.2403C152.865 33.2403 153.336 33.1975 153.743 33.1119C154.149 33.0263 154.471 32.8764 154.727 32.7052C154.984 32.5125 155.177 32.277 155.284 31.9773C155.412 31.6776 155.455 31.3351 155.455 30.9284C155.455 30.0935 155.198 29.4941 154.663 29.1088C154.128 28.7235 153.336 28.5308 152.287 28.5308C151.709 28.5308 151.238 28.5737 150.831 28.6807C150.425 28.7663 150.104 28.9162 149.847 29.1088C149.59 29.3015 149.419 29.5584 149.29 29.8581C149.183 30.1578 149.119 30.5217 149.119 30.9284C149.119 31.3351 149.183 31.699 149.29 31.9773C149.397 32.277 149.59 32.5125 149.847 32.7052C150.104 32.8978 150.425 33.0263 150.831 33.1333C151.238 33.2189 151.709 33.2831 152.287 33.2831V33.2403ZM152.266 41.2893C153.079 41.2893 153.743 41.2464 154.256 41.1608C154.77 41.0752 155.177 40.9467 155.477 40.7755C155.776 40.6042 155.969 40.3902 156.097 40.1333C156.204 39.8764 156.269 39.5767 156.269 39.2556C156.269 38.9131 156.205 38.6348 156.076 38.3993C155.948 38.1853 155.712 38.014 155.412 37.8856C155.091 37.7571 154.685 37.6715 154.171 37.6287C153.657 37.5859 153.036 37.5645 152.287 37.5645C151.452 37.5645 150.81 37.6073 150.296 37.7143C149.804 37.8214 149.419 37.9498 149.162 38.1211C148.905 38.2923 148.734 38.5064 148.648 38.7418C148.562 38.9773 148.519 39.2128 148.519 39.4911C148.519 39.855 148.584 40.1333 148.734 40.3688C148.883 40.6042 149.119 40.7969 149.419 40.9253C149.718 41.0752 150.125 41.1608 150.596 41.225C151.067 41.2892 151.623 41.3107 152.287 41.3107L152.266 41.2893ZM152.287 34.6318C151.902 34.6318 151.538 34.6318 151.217 34.5889C150.896 34.5675 150.575 34.5033 150.275 34.4391C150.168 34.5675 150.082 34.696 150.018 34.8458C149.954 34.9957 149.911 35.1455 149.911 35.2954C149.911 35.488 149.954 35.6379 150.018 35.7449C150.104 35.8519 150.211 35.9376 150.403 36.0018C150.575 36.066 150.831 36.1088 151.153 36.1302C151.474 36.1516 151.859 36.173 152.33 36.173C153.357 36.173 154.235 36.2159 154.941 36.3015C155.648 36.3871 156.226 36.537 156.654 36.7724C157.082 36.9865 157.382 37.2862 157.575 37.6715C157.767 38.0568 157.853 38.5492 157.853 39.1272C157.853 39.7266 157.746 40.2403 157.553 40.6685C157.36 41.0966 157.039 41.4605 156.59 41.7602C156.14 42.0385 155.562 42.2526 154.834 42.4024C154.107 42.5308 153.229 42.6165 152.18 42.6165C151.26 42.6165 150.468 42.5737 149.804 42.488C149.14 42.4024 148.584 42.2526 148.156 42.0385C147.727 41.8244 147.406 41.5247 147.192 41.1608C146.978 40.7755 146.893 40.3045 146.893 39.7266C146.893 39.3841 146.935 39.063 147 38.7633C147.064 38.4636 147.192 38.1853 147.364 37.9284C147.535 37.6715 147.77 37.4574 148.07 37.2648C148.37 37.0721 148.734 36.9437 149.183 36.8581C148.948 36.751 148.776 36.5798 148.648 36.3443C148.519 36.1088 148.455 35.8305 148.455 35.5094C148.455 35.2311 148.498 34.9529 148.605 34.6746C148.691 34.4177 148.841 34.1608 148.99 33.9682C148.519 33.6685 148.156 33.2617 147.92 32.7694C147.685 32.277 147.578 31.6562 147.578 30.9498C147.578 30.3076 147.663 29.7296 147.856 29.2587C148.049 28.7663 148.327 28.381 148.691 28.0599C149.076 27.7388 149.547 27.5033 150.146 27.3321C150.746 27.1822 151.452 27.0966 152.266 27.0966C152.458 27.0966 152.651 27.0966 152.822 27.0966C153.015 27.0966 153.186 27.118 153.379 27.1394L157.382 26.6685V27.9957H155.455C155.969 28.274 156.354 28.6379 156.611 29.1088C156.868 29.5798 156.997 30.2006 156.997 30.9712C156.997 32.2556 156.611 33.1975 155.841 33.7969C155.07 34.3963 153.871 34.696 152.244 34.696L152.287 34.6318Z" fill="black"/>
<path id="Vector_17" fill-rule="evenodd" clip-rule="evenodd" d="M159.887 27.3961L161.128 27.3105L161.278 28.8518C161.385 28.6163 161.556 28.4022 161.792 28.2096C162.027 27.9955 162.306 27.8243 162.648 27.6744C162.991 27.5246 163.376 27.3961 163.804 27.3105C164.254 27.2249 164.725 27.1606 165.26 27.1606V28.7447C164.553 28.7447 163.954 28.8304 163.483 29.023C162.991 29.2157 162.605 29.4726 162.306 29.8151C162.006 30.1576 161.792 30.5643 161.663 31.0353C161.535 31.5062 161.449 32.02 161.449 32.598V38.8273H159.865V27.3747L159.887 27.3961Z" fill="black"/>
<path id="Vector_18" fill-rule="evenodd" clip-rule="evenodd" d="M170.012 37.7357C170.74 37.7357 171.361 37.6501 171.874 37.5003C172.388 37.3504 172.816 37.0935 173.137 36.7724C173.458 36.4513 173.715 36.0232 173.865 35.5094C174.015 34.9957 174.101 34.3963 174.101 33.6899V32.855H173.501C172.666 32.855 171.939 32.855 171.318 32.8978C170.697 32.9406 170.14 32.9835 169.691 33.0691C169.22 33.1547 168.856 33.2617 168.535 33.3902C168.235 33.5186 167.978 33.6899 167.807 33.9039C167.614 34.0966 167.486 34.3535 167.422 34.6104C167.336 34.8887 167.315 35.2098 167.315 35.5737C167.315 35.9162 167.358 36.2373 167.443 36.4942C167.529 36.7724 167.679 36.9865 167.893 37.1792C168.107 37.3718 168.385 37.5003 168.728 37.6073C169.07 37.6929 169.52 37.7572 170.055 37.7572L170.012 37.7357ZM169.776 39.0844C168.963 39.0844 168.299 38.9987 167.786 38.8275C167.272 38.6562 166.865 38.4208 166.565 38.0997C166.266 37.8 166.052 37.4361 165.945 37.0079C165.816 36.5798 165.773 36.1302 165.773 35.6593C165.773 34.8458 165.902 34.1394 166.159 33.6042C166.416 33.0477 166.822 32.6195 167.422 32.2984C168.021 31.9773 168.792 31.7419 169.776 31.6134C170.761 31.485 171.981 31.4208 173.437 31.4208H174.122C174.122 30.9284 174.058 30.5003 173.994 30.1364C173.929 29.7724 173.78 29.4727 173.544 29.2373C173.33 29.0018 173.009 28.8305 172.602 28.7235C172.195 28.6165 171.682 28.5523 171.018 28.5523C170.654 28.5523 170.312 28.5737 169.969 28.6379C169.648 28.7021 169.327 28.7663 169.027 28.8734C168.728 28.9804 168.471 29.0874 168.214 29.1945C167.978 29.3229 167.764 29.4299 167.572 29.5584L166.737 28.3168C166.929 28.1883 167.165 28.0599 167.465 27.9101C167.764 27.7602 168.107 27.6318 168.492 27.5033C168.877 27.3749 169.284 27.2679 169.734 27.2036C170.183 27.118 170.633 27.0752 171.125 27.0752C172.088 27.0752 172.859 27.1608 173.458 27.3535C174.036 27.5247 174.507 27.803 174.828 28.1883C175.15 28.5737 175.364 29.0446 175.471 29.644C175.578 30.2434 175.621 30.9498 175.621 31.7633V36.1088C175.621 36.4085 175.621 36.6654 175.642 36.8367C175.642 37.0293 175.706 37.1578 175.792 37.2648C175.877 37.3718 175.984 37.436 176.156 37.4575C176.306 37.4789 176.541 37.5003 176.819 37.5003V38.8703C176.819 38.8703 176.691 38.9131 176.584 38.9131C176.477 38.9131 176.348 38.9131 176.198 38.9131C175.877 38.9131 175.599 38.8917 175.364 38.8275C175.15 38.7633 174.957 38.6776 174.828 38.5706C174.7 38.4636 174.593 38.3137 174.507 38.1211C174.443 37.9498 174.379 37.7143 174.336 37.4575C174.165 37.7357 173.951 37.9712 173.694 38.1639C173.437 38.3565 173.137 38.5278 172.773 38.6776C172.41 38.8061 171.981 38.9131 171.51 38.9773C171.018 39.0416 170.462 39.0844 169.819 39.0844H169.776Z" fill="black"/>
<path id="Vector_19" fill-rule="evenodd" clip-rule="evenodd" d="M183.648 39.1056C182.578 39.1056 181.7 38.9558 180.994 38.6775C180.287 38.3992 179.731 37.9925 179.303 37.4787C178.874 36.9649 178.596 36.3227 178.425 35.5949C178.254 34.8671 178.168 34.0322 178.168 33.1117C178.168 32.1912 178.254 31.3564 178.425 30.6285C178.596 29.8793 178.896 29.2585 179.324 28.7233C179.752 28.2096 180.309 27.8029 181.015 27.5246C181.721 27.2463 182.621 27.0964 183.712 27.0964C184.226 27.0964 184.697 27.1392 185.104 27.2249C185.532 27.3105 185.896 27.4389 186.238 27.5888C186.581 27.7386 186.88 27.9099 187.137 28.124C187.394 28.3166 187.63 28.5307 187.844 28.7662L186.688 29.8365C186.538 29.6866 186.388 29.5582 186.195 29.4084C186.003 29.2585 185.81 29.1301 185.553 29.023C185.318 28.916 185.04 28.809 184.718 28.7448C184.419 28.6805 184.055 28.6377 183.669 28.6377C182.92 28.6377 182.299 28.7448 181.786 28.9374C181.272 29.1301 180.865 29.4298 180.566 29.8151C180.266 30.2004 180.052 30.6714 179.923 31.2493C179.795 31.8059 179.731 32.4481 179.731 33.1759C179.731 33.8824 179.795 34.5246 179.923 35.0811C180.052 35.6377 180.266 36.1087 180.566 36.5154C180.865 36.9007 181.272 37.2004 181.786 37.4145C182.299 37.6285 182.92 37.7356 183.691 37.7356C184.012 37.7356 184.312 37.7142 184.59 37.6714C184.868 37.6285 185.125 37.5429 185.382 37.4359C185.617 37.3288 185.874 37.2004 186.088 37.0506C186.324 36.9007 186.538 36.7295 186.752 36.5154L187.822 37.5215C187.544 37.7784 187.244 38.0139 186.945 38.2065C186.645 38.4206 186.345 38.5704 186.003 38.7203C185.682 38.8487 185.318 38.9558 184.932 39.02C184.547 39.0842 184.119 39.127 183.648 39.127V39.1056Z" fill="black"/>
<path id="Vector_20" fill-rule="evenodd" clip-rule="evenodd" d="M190.135 23.5857H191.719V25.8548H190.135V23.5857ZM190.135 27.3747H191.676V38.9129H190.135V27.3747Z" fill="black"/>
<path id="Vector_21" fill-rule="evenodd" clip-rule="evenodd" d="M194.652 23.5857H196.236V25.8548H194.652V23.5857ZM192.982 41.0964H193.111C193.432 41.0964 193.689 41.0536 193.903 40.9894C194.096 40.9251 194.267 40.8395 194.374 40.6897C194.481 40.5612 194.567 40.3686 194.588 40.1331C194.631 39.8976 194.652 39.6193 194.652 39.2768V27.3533H196.215V39.2768C196.215 39.8548 196.151 40.3472 196.086 40.7539C196.001 41.1606 195.851 41.4817 195.637 41.7172C195.423 41.9527 195.123 42.1239 194.738 42.231C194.352 42.338 193.86 42.3808 193.261 42.3808H192.982V41.0536V41.0964Z" fill="black"/>
<path id="Vector_22" fill-rule="evenodd" clip-rule="evenodd" d="M203.898 28.5523C203.17 28.5523 202.571 28.6379 202.1 28.8091C201.629 28.9804 201.244 29.2373 200.944 29.5584C200.645 29.8795 200.43 30.2862 200.302 30.7357C200.174 31.1853 200.067 31.699 200.045 32.2556H207.152C207.152 31.9345 207.109 31.592 207.088 31.2709C207.067 30.9498 207.002 30.6501 206.938 30.3932C206.874 30.1149 206.767 29.8581 206.617 29.644C206.489 29.4085 206.296 29.2373 206.06 29.066C205.825 28.9162 205.525 28.7877 205.183 28.7021C204.84 28.6165 204.412 28.5737 203.898 28.5737V28.5523ZM203.984 39.1914C203.213 39.1914 202.55 39.1272 201.972 38.9773C201.394 38.8275 200.923 38.6348 200.516 38.3779C200.109 38.1211 199.767 37.8 199.51 37.436C199.253 37.0721 199.039 36.6654 198.889 36.2159C198.739 35.7663 198.632 35.2954 198.568 34.7602C198.504 34.2464 198.482 33.7113 198.482 33.1547C198.482 32.3198 198.568 31.5278 198.718 30.8C198.868 30.0721 199.146 29.4299 199.553 28.8948C199.959 28.3596 200.516 27.9315 201.222 27.6104C201.929 27.2893 202.828 27.1394 203.941 27.1394C204.712 27.1394 205.354 27.225 205.889 27.3963C206.424 27.5675 206.874 27.803 207.216 28.1027C207.559 28.4024 207.837 28.7663 208.03 29.173C208.222 29.5798 208.372 30.0293 208.458 30.5217C208.544 31.014 208.608 31.5278 208.629 32.063C208.629 32.5981 208.629 33.1547 208.629 33.7113H199.981C199.981 34.3107 200.067 34.8672 200.195 35.3596C200.302 35.8733 200.516 36.3015 200.816 36.6654C201.115 37.0293 201.501 37.3076 202.015 37.5003C202.528 37.6929 203.17 37.8 203.963 37.8C204.433 37.8 204.862 37.7785 205.204 37.7143C205.568 37.6501 205.889 37.5859 206.167 37.4789C206.446 37.3718 206.724 37.2434 206.959 37.1149C207.195 36.9651 207.43 36.8152 207.666 36.6654L208.522 37.7786C208.244 37.9926 207.944 38.1853 207.623 38.3779C207.302 38.5492 206.959 38.7204 206.596 38.8275C206.232 38.9559 205.825 39.0415 205.397 39.1272C204.969 39.1914 204.476 39.2342 203.963 39.2342L203.984 39.1914Z" fill="black"/>
</g>
<defs>
<clipPath id="clip0_1019_40829">
<rect width="208.651" height="42" fill="white" transform="translate(0 0.594971)"/>
</clipPath>
</defs>
</svg>
